<svg id="Layer_1" data-name="Layer 1" xmlns="http://www.w3.org/2000/svg" viewBox="0 0 438.16 305.58"><defs><style>.cls-1{fill:#0068a9;}.cls-2{fill:#fff;}.cls-3{fill:#7c74bd;}.cls-4{fill:#6dc3c5;}.cls-5{fill:#44a8aa;}</style></defs><title>Vidispine-stacked-RGB</title><rect class="cls-1" x="42.11" y="221.36" width="353.3" height="42.11"/><path class="cls-2" d="M83.35,251.09l-1.91-4.88H74.19l-1.76,4.88H69.88l7.18-18.79h1.63L86,251.09Zm-4.72-12.74c-.17-.47-.32-.89-.43-1.27s-.22-.73-.29-1.05h0c-.08.35-.18.7-.3,1.07s-.26.77-.43,1.22L75.08,244h5.51Z"/><path class="cls-2" d="M97.16,251.09v-8.16a9.18,9.18,0,0,0-.07-1.17,3.33,3.33,0,0,0-.31-1.07,2,2,0,0,0-.67-.78,2,2,0,0,0-1.17-.29,3.69,3.69,0,0,0-1.09.16,6.22,6.22,0,0,0-1,.43,7.76,7.76,0,0,0-1,.6c-.3.22-.59.45-.85.68v9.6H88.52V237.64h2.1l.31,1.55q.58-.44,1.14-.78a8,8,0,0,1,1.12-.59,6.88,6.88,0,0,1,1.19-.38,6.16,6.16,0,0,1,1.32-.13,4.27,4.27,0,0,1,1.45.26,3.56,3.56,0,0,1,1.28.84,4.28,4.28,0,0,1,.91,1.47,6.24,6.24,0,0,1,.34,2.2v9Z"/><path class="cls-2" d="M121.66,251.09l-1.91-4.88H112.5l-1.76,4.88h-2.55l7.19-18.79H117l7.3,18.79Zm-4.72-12.74c-.17-.47-.32-.89-.43-1.27s-.21-.73-.29-1.05h0c-.08.35-.18.7-.29,1.07s-.27.77-.44,1.22L113.39,244h5.51Z"/><path class="cls-2" d="M133.56,240.09a2.9,2.9,0,0,0-1.34-.31,3,3,0,0,0-1.37.36,7.81,7.81,0,0,0-1.53,1.11v9.84h-2.49V237.64h2.06l.35,1.52a10.39,10.39,0,0,1,1.15-.95,6.21,6.21,0,0,1,1-.56,4,4,0,0,1,.83-.27,3.81,3.81,0,0,1,.75-.07,3,3,0,0,1,.94.14,3.23,3.23,0,0,1,.69.3Z"/><path class="cls-2" d="M142.2,251.17h-1.91L135,237.64h2.56l3.67,10.24h0l4-10.24h2.47Z"/><path class="cls-2" d="M157.58,251.09l-.54-1.28a6.42,6.42,0,0,1-.73.58,5.63,5.63,0,0,1-.91.5,6.46,6.46,0,0,1-1.1.35,6.74,6.74,0,0,1-1.33.13,4.61,4.61,0,0,1-1.62-.29,3.86,3.86,0,0,1-1.33-.82,4,4,0,0,1-.91-1.32,4.27,4.27,0,0,1-.34-1.75,3.85,3.85,0,0,1,1.41-3.17,6.7,6.7,0,0,1,4.07-1.23l2.62-.08v-.51a3.56,3.56,0,0,0-.21-1.31,2.08,2.08,0,0,0-.58-.87,2.13,2.13,0,0,0-.89-.48,3.92,3.92,0,0,0-1.11-.15,5.8,5.8,0,0,0-1.14.11,5.64,5.64,0,0,0-.95.27,5.25,5.25,0,0,0-.79.37c-.23.14-.45.28-.64.42l-.94-1.71a8.56,8.56,0,0,1,1.22-.75,7,7,0,0,1,1.21-.47,7.34,7.34,0,0,1,1.22-.25,10.58,10.58,0,0,1,1.27-.07,7.42,7.42,0,0,1,1.94.24,4.09,4.09,0,0,1,1.54.79,3.82,3.82,0,0,1,1,1.44,5.82,5.82,0,0,1,.37,2.19v4.51c0,.8,0,1.46,0,2s0,1,.05,1.33a6.17,6.17,0,0,0,.09.81,4.48,4.48,0,0,0,.12.47Zm-.71-6.37-2.45.08a4.37,4.37,0,0,0-2.39.63,1.85,1.85,0,0,0-.74,1.57,2.57,2.57,0,0,0,.16.9,1.89,1.89,0,0,0,.46.72,2.21,2.21,0,0,0,.78.49,3,3,0,0,0,1.07.18,4.27,4.27,0,0,0,1.06-.13,4.92,4.92,0,0,0,.87-.31,3.44,3.44,0,0,0,.68-.43,4.59,4.59,0,0,0,.5-.44Z"/><path class="cls-2" d="M169.27,251a5.94,5.94,0,0,1-2,.37,3.82,3.82,0,0,1-1.37-.22,2.45,2.45,0,0,1-.94-.6,2.55,2.55,0,0,1-.55-.93,3.8,3.8,0,0,1-.18-1.21v-8.74H162v-2h2.24v-3l2.53-.79v3.8h4.15l-.82,2h-3.33v7.89a1.89,1.89,0,0,0,.32,1.23,1.17,1.17,0,0,0,1,.4,3.08,3.08,0,0,0,.68-.08l.63-.21a4.21,4.21,0,0,0,.56-.29c.17-.1.32-.21.46-.31l.74,1.71A7.72,7.72,0,0,1,169.27,251Z"/><path class="cls-2" d="M179.4,237.31a6.59,6.59,0,0,1,2.53.47,5.82,5.82,0,0,1,2,1.35,6.35,6.35,0,0,1,1.38,2.27,8.88,8.88,0,0,1,.47,3,8.71,8.71,0,0,1-.49,3,6.63,6.63,0,0,1-1.41,2.3,5.79,5.79,0,0,1-2,1.3,6.72,6.72,0,0,1-2.51.45,6,6,0,0,1-4.34-1.64,6.13,6.13,0,0,1-1.44-2.33,8.84,8.84,0,0,1-.49-3,8.56,8.56,0,0,1,.49-3,6.63,6.63,0,0,1,1.41-2.3,5.86,5.86,0,0,1,1.94-1.32A6.31,6.31,0,0,1,179.4,237.31Zm0,2.08a3.39,3.39,0,0,0-1.59.36,3.25,3.25,0,0,0-1.17,1,5.1,5.1,0,0,0-.72,1.56,7.8,7.8,0,0,0-.24,2,7.59,7.59,0,0,0,.26,2,4.62,4.62,0,0,0,.75,1.56,3.36,3.36,0,0,0,1.19,1,3.45,3.45,0,0,0,1.59.36,3.31,3.31,0,0,0,1.57-.36,3.43,3.43,0,0,0,1.17-1,4.84,4.84,0,0,0,.73-1.57,8.29,8.29,0,0,0,0-4,4.52,4.52,0,0,0-.74-1.56,3.23,3.23,0,0,0-1.18-1A3.51,3.51,0,0,0,179.37,239.39Z"/><path class="cls-2" d="M207.33,246.35a4.43,4.43,0,0,1-.47,2.06,4.7,4.7,0,0,1-1.29,1.58,6.13,6.13,0,0,1-1.95,1,7.82,7.82,0,0,1-2.42.36,10.4,10.4,0,0,1-1.74-.14,10.75,10.75,0,0,1-1.46-.36,9.47,9.47,0,0,1-1.19-.5,10,10,0,0,1-.95-.56l1.14-1.95a5.33,5.33,0,0,0,.72.46,7.12,7.12,0,0,0,1,.44,7.27,7.27,0,0,0,1.14.32,6,6,0,0,0,1.3.14,5.17,5.17,0,0,0,1.23-.15,3.84,3.84,0,0,0,1.14-.46,2.71,2.71,0,0,0,.83-.82,2.13,2.13,0,0,0,.32-1.2,2.59,2.59,0,0,0-.34-1.34,4.54,4.54,0,0,0-.91-1.06,9.17,9.17,0,0,0-1.29-.9l-1.49-.85c-.5-.29-1-.6-1.48-.92a7.31,7.31,0,0,1-1.29-1.12,5.18,5.18,0,0,1-1-1.46,5,5,0,0,1-.35-1.92,4.84,4.84,0,0,1,.37-1.87,4.28,4.28,0,0,1,1.1-1.53,5.29,5.29,0,0,1,1.77-1,7.31,7.31,0,0,1,2.39-.37,9.47,9.47,0,0,1,2.56.3,10.55,10.55,0,0,1,1.76.64l0,2.5a9.36,9.36,0,0,0-1.94-.89,7.05,7.05,0,0,0-2.24-.36,5.3,5.3,0,0,0-1.22.14,3.13,3.13,0,0,0-1,.42,2.19,2.19,0,0,0-.69.73,2.12,2.12,0,0,0-.26,1.07,2.35,2.35,0,0,0,.36,1.3,4.14,4.14,0,0,0,.93,1.05,9.53,9.53,0,0,0,1.32.9l1.51.87c.52.3,1,.61,1.51,1A7.32,7.32,0,0,1,206,243a5.35,5.35,0,0,1,.94,1.47A4.62,4.62,0,0,1,207.33,246.35Z"/><path class="cls-2" d="M216.74,252.12a15,15,0,0,1-1.37,2.95,7.06,7.06,0,0,1-1.48,1.73,4.32,4.32,0,0,1-1.59.82,7.2,7.2,0,0,1-1.67.2,6.55,6.55,0,0,1-1.5-.15,10.54,10.54,0,0,1-1.2-.39l.62-1.93a4,4,0,0,0,.92.34,4.6,4.6,0,0,0,1.11.12,2.85,2.85,0,0,0,1.14-.24,3.29,3.29,0,0,0,1.08-.8,6.28,6.28,0,0,0,1-1.45,12.85,12.85,0,0,0,.83-2.17l-6.09-13.51h2.67l4.61,10.52h.08l3.53-10.52h2.5Z"/><path class="cls-2" d="M232.77,247.34a3.78,3.78,0,0,1-.41,1.85,3.51,3.51,0,0,1-1.11,1.25,5,5,0,0,1-1.67.71,9.52,9.52,0,0,1-2,.22,9.79,9.79,0,0,1-1.38-.09A9.11,9.11,0,0,1,225,251a8.8,8.8,0,0,1-1-.36,8.27,8.27,0,0,1-.79-.41l.88-1.91a6.54,6.54,0,0,0,.66.36,5.34,5.34,0,0,0,.8.34,5.06,5.06,0,0,0,.91.25,4.77,4.77,0,0,0,1,.1,4.55,4.55,0,0,0,1.07-.12,3.15,3.15,0,0,0,.85-.36,1.86,1.86,0,0,0,.55-.57,1.43,1.43,0,0,0,.2-.77,1.67,1.67,0,0,0-.26-.94,2.83,2.83,0,0,0-.69-.69,5.15,5.15,0,0,0-1-.53c-.37-.16-.75-.32-1.13-.5a12,12,0,0,1-1.13-.57,4.39,4.39,0,0,1-1-.77,3.7,3.7,0,0,1-.69-1.08,3.82,3.82,0,0,1-.26-1.51,3.45,3.45,0,0,1,.29-1.43,3.21,3.21,0,0,1,.87-1.18,4.51,4.51,0,0,1,1.46-.79,6.56,6.56,0,0,1,2-.29,9.07,9.07,0,0,1,2,.2,10.11,10.11,0,0,1,1.58.51v2.16l-.78-.31c-.26-.1-.53-.18-.81-.26a7.76,7.76,0,0,0-.89-.19,6.24,6.24,0,0,0-1-.07,4.39,4.39,0,0,0-.91.09,2.18,2.18,0,0,0-.73.28,1.28,1.28,0,0,0-.66,1.17,1.4,1.4,0,0,0,.27.86,2.75,2.75,0,0,0,.7.65,7.19,7.19,0,0,0,1,.52l1.16.52c.39.18.77.38,1.15.6a4.42,4.42,0,0,1,1,.78,3.61,3.61,0,0,1,.7,1.07A3.54,3.54,0,0,1,232.77,247.34Z"/><path class="cls-2" d="M241.94,251a5.94,5.94,0,0,1-2,.37,3.79,3.79,0,0,1-1.37-.22,2.38,2.38,0,0,1-.94-.6,2.42,2.42,0,0,1-.55-.93,3.8,3.8,0,0,1-.18-1.21v-8.74h-2.25v-2h2.25v-3l2.53-.79v3.8h4.15l-.82,2h-3.33v7.89a1.89,1.89,0,0,0,.32,1.23,1.17,1.17,0,0,0,1,.4,2.93,2.93,0,0,0,.67-.08c.22-.06.43-.13.64-.21a4.21,4.21,0,0,0,.56-.29c.17-.1.32-.21.46-.31l.74,1.71A7.91,7.91,0,0,1,241.94,251Z"/><path class="cls-2" d="M248.4,244.9a5,5,0,0,0,.29,1.7,4.13,4.13,0,0,0,.82,1.39,3.89,3.89,0,0,0,1.33.95,4.41,4.41,0,0,0,1.8.35,5.15,5.15,0,0,0,1.72-.3,8.85,8.85,0,0,0,1.55-.7l.71,1.73a6.8,6.8,0,0,1-2.1,1,8.49,8.49,0,0,1-2.36.35,6.31,6.31,0,0,1-2.85-.6,5.89,5.89,0,0,1-2-1.59,6.45,6.45,0,0,1-1.17-2.29,9.34,9.34,0,0,1-.38-2.71,8.77,8.77,0,0,1,.4-2.7,6.84,6.84,0,0,1,1.14-2.18,5.62,5.62,0,0,1,1.79-1.46,5.16,5.16,0,0,1,2.34-.53,5.56,5.56,0,0,1,2.36.49,4.91,4.91,0,0,1,1.76,1.41,6.45,6.45,0,0,1,1.08,2.18,9.73,9.73,0,0,1,.38,2.85v.66Zm5.76-3.26a3.5,3.5,0,0,0-.55-1.15,2.89,2.89,0,0,0-.91-.83,2.67,2.67,0,0,0-1.29-.31,2.72,2.72,0,0,0-1.26.29,3.05,3.05,0,0,0-1,.78,3.28,3.28,0,0,0-.61,1.14,4.73,4.73,0,0,0-.2,1.37h6A4.78,4.78,0,0,0,254.16,241.64Z"/><path class="cls-2" d="M277.32,251.09v-8.65a6.88,6.88,0,0,0-.09-1.15,2.55,2.55,0,0,0-.31-.93,1.57,1.57,0,0,0-.63-.62,2.2,2.2,0,0,0-1.06-.22,4,4,0,0,0-1.16.16,5.41,5.41,0,0,0-1.05.44,7.16,7.16,0,0,0-.91.6c-.28.23-.55.44-.8.66a1.72,1.72,0,0,1,0,.33v9.38h-2.52v-8.58a8.72,8.72,0,0,0-.08-1.17,3.09,3.09,0,0,0-.31-1,1.68,1.68,0,0,0-.64-.63,2.12,2.12,0,0,0-1.07-.23,3.68,3.68,0,0,0-1.15.17,5.81,5.81,0,0,0-1,.44,7.34,7.34,0,0,0-.92.61c-.29.22-.55.44-.8.67v9.68h-2.53V237.64h2.11l.3,1.57a9.94,9.94,0,0,1,2.45-1.44,6.27,6.27,0,0,1,2.29-.46,3.63,3.63,0,0,1,2.12.6,3.32,3.32,0,0,1,1.26,1.58,10.15,10.15,0,0,1,1.18-.92,10.87,10.87,0,0,1,1.24-.68,8.81,8.81,0,0,1,1.25-.43,5.06,5.06,0,0,1,1.2-.15,5.38,5.38,0,0,1,1.55.22,3.32,3.32,0,0,1,1.33.72,3.51,3.51,0,0,1,.92,1.34,5.39,5.39,0,0,1,.35,2.07v9.43Z"/><path class="cls-2" d="M292.12,247.34a3.89,3.89,0,0,1-.41,1.85,3.64,3.64,0,0,1-1.12,1.25,5,5,0,0,1-1.67.71,9.38,9.38,0,0,1-2,.22,10,10,0,0,1-1.38-.09,8.6,8.6,0,0,1-1.15-.24,8.27,8.27,0,0,1-1-.36,7,7,0,0,1-.78-.41l.87-1.91q.3.18.66.36a5.83,5.83,0,0,0,.8.34,5.17,5.17,0,0,0,.92.25,4.74,4.74,0,0,0,1,.1,4.49,4.49,0,0,0,1.07-.12,3.15,3.15,0,0,0,.85-.36,1.86,1.86,0,0,0,.55-.57,1.43,1.43,0,0,0,.2-.77,1.6,1.6,0,0,0-.26-.94,2.66,2.66,0,0,0-.69-.69,5.15,5.15,0,0,0-1-.53l-1.13-.5c-.38-.17-.76-.36-1.13-.57a4.12,4.12,0,0,1-1-.77,3.53,3.53,0,0,1-.7-1.08,4,4,0,0,1-.26-1.51,3.62,3.62,0,0,1,.29-1.43,3.32,3.32,0,0,1,.87-1.18,4.51,4.51,0,0,1,1.46-.79,6.56,6.56,0,0,1,2-.29,9.23,9.23,0,0,1,2,.2,10.33,10.33,0,0,1,1.57.51v2.16l-.78-.31c-.26-.1-.53-.18-.81-.26a7.76,7.76,0,0,0-.89-.19,6.24,6.24,0,0,0-1-.07,4.39,4.39,0,0,0-.91.09,2.18,2.18,0,0,0-.73.28,1.33,1.33,0,0,0-.49.48,1.36,1.36,0,0,0-.17.69,1.4,1.4,0,0,0,.27.86,2.64,2.64,0,0,0,.71.65,6.22,6.22,0,0,0,1,.52l1.15.52c.39.18.77.38,1.15.6a4.21,4.21,0,0,1,1,.78,3.61,3.61,0,0,1,.7,1.07A3.38,3.38,0,0,1,292.12,247.34Z"/><path class="cls-2" d="M314.84,245.46a6.41,6.41,0,0,1-.34,2,4.63,4.63,0,0,1-1.11,1.81,5.57,5.57,0,0,1-2,1.31,8.35,8.35,0,0,1-3.12.51h-5.08V232.36h5.46a5.81,5.81,0,0,1,2.26.41,4.68,4.68,0,0,1,1.58,1.09,4.37,4.37,0,0,1,.92,1.49,4.79,4.79,0,0,1,.3,1.64,4.64,4.64,0,0,1-.62,2.48,4.35,4.35,0,0,1-1.77,1.62v0a4.15,4.15,0,0,1,1.38.45,4.2,4.2,0,0,1,1.14.92,4.33,4.33,0,0,1,.76,1.31A4.82,4.82,0,0,1,314.84,245.46Zm-9.16-10.85v5.79H308a3.32,3.32,0,0,0,1.11-.19,3,3,0,0,0,1-.57,3,3,0,0,0,.7-.94,2.9,2.9,0,0,0,.27-1.28,2.74,2.74,0,0,0-.78-2.06,3.42,3.42,0,0,0-2.43-.75Zm6.45,11a3,3,0,0,0-.23-1.17,2.54,2.54,0,0,0-.7-.93,3.13,3.13,0,0,0-1.14-.63,5,5,0,0,0-1.57-.23h-2.81v6.19h2.58a5.32,5.32,0,0,0,1.68-.24,3.62,3.62,0,0,0,1.21-.67,2.82,2.82,0,0,0,.73-1A3.27,3.27,0,0,0,312.13,245.61Z"/><path class="cls-2" d="M324.85,240.09a2.86,2.86,0,0,0-1.33-.31,3,3,0,0,0-1.37.36,7.26,7.26,0,0,0-1.53,1.11v9.84h-2.5V237.64h2.07l.34,1.52a10.39,10.39,0,0,1,1.15-.95,7.31,7.31,0,0,1,1-.56,4,4,0,0,1,.83-.27,3.91,3.91,0,0,1,.76-.07,3,3,0,0,1,.94.14,3.13,3.13,0,0,1,.68.3Z"/><path class="cls-2" d="M335.49,251.09l-.54-1.28a6.42,6.42,0,0,1-.73.58,5.63,5.63,0,0,1-.91.5,6.46,6.46,0,0,1-1.1.35,6.9,6.9,0,0,1-1.33.13,4.61,4.61,0,0,1-1.62-.29,3.77,3.77,0,0,1-1.33-.82,3.89,3.89,0,0,1-.91-1.32,4.27,4.27,0,0,1-.34-1.75,3.85,3.85,0,0,1,1.41-3.17,6.68,6.68,0,0,1,4.07-1.23l2.62-.08v-.51a3.56,3.56,0,0,0-.21-1.31,2.13,2.13,0,0,0-1.47-1.35,3.92,3.92,0,0,0-1.11-.15,5.91,5.91,0,0,0-2.09.38,5.25,5.25,0,0,0-.79.37c-.23.14-.45.28-.64.42l-1-1.71a9.23,9.23,0,0,1,1.23-.75,6.71,6.71,0,0,1,1.21-.47,7.34,7.34,0,0,1,1.22-.25,10.46,10.46,0,0,1,1.27-.07,7.42,7.42,0,0,1,1.94.24,4,4,0,0,1,1.53.79,3.84,3.84,0,0,1,1,1.44,5.82,5.82,0,0,1,.37,2.19v4.51c0,.8,0,1.46,0,2s0,1,.05,1.33a6.17,6.17,0,0,0,.09.81,4.48,4.48,0,0,0,.12.47Zm-.71-6.37-2.46.08a4.33,4.33,0,0,0-2.38.63,1.85,1.85,0,0,0-.74,1.57,2.57,2.57,0,0,0,.15.9,2,2,0,0,0,.47.72,2.21,2.21,0,0,0,.78.49,2.93,2.93,0,0,0,1.07.18,4.33,4.33,0,0,0,1.06-.13,4.92,4.92,0,0,0,.87-.31,3.44,3.44,0,0,0,.68-.43,5.78,5.78,0,0,0,.5-.44Z"/><path class="cls-2" d="M349.79,251.09v-8.16a9.18,9.18,0,0,0-.07-1.17,3.33,3.33,0,0,0-.31-1.07,2,2,0,0,0-.67-.78,2,2,0,0,0-1.17-.29,3.69,3.69,0,0,0-1.09.16,6.22,6.22,0,0,0-1,.43,7.76,7.76,0,0,0-1,.6,10.12,10.12,0,0,0-.85.68v9.6h-2.49V237.64h2.1l.31,1.55q.58-.44,1.14-.78a8,8,0,0,1,1.12-.59,6.88,6.88,0,0,1,1.19-.38,6.16,6.16,0,0,1,1.32-.13,4.27,4.27,0,0,1,1.45.26,3.56,3.56,0,0,1,1.28.84,4.28,4.28,0,0,1,.91,1.47,6.24,6.24,0,0,1,.34,2.2v9Z"/><path class="cls-2" d="M365.31,251.08a11.43,11.43,0,0,1-2.69.29,8.42,8.42,0,0,1-2.72-.43,6.28,6.28,0,0,1-2.24-1.27,6,6,0,0,1-1.51-2.13,7.35,7.35,0,0,1-.57-3,7.64,7.64,0,0,1,.55-2.9,7,7,0,0,1,1.51-2.28,6.93,6.93,0,0,1,2.25-1.5,7.24,7.24,0,0,1,2.8-.54,9.23,9.23,0,0,1,1.14.06,6.6,6.6,0,0,1,.87.14V231h2.53v19.41A8.22,8.22,0,0,1,365.31,251.08Zm-.61-11.35-.38-.11-.41-.1a3.46,3.46,0,0,0-.49-.06,5.92,5.92,0,0,0-.62,0,4.78,4.78,0,0,0-1.81.34,4.21,4.21,0,0,0-1.49,1,4.67,4.67,0,0,0-1,1.56,5.35,5.35,0,0,0-.38,2,5.9,5.9,0,0,0,.31,2,4,4,0,0,0,.91,1.54,4.33,4.33,0,0,0,1.52,1,5.73,5.73,0,0,0,2.12.37,5.17,5.17,0,0,0,.95-.09,3.71,3.71,0,0,0,.78-.23Z"/><path d="M93,190V140.73h7.6V190Z"/><path d="M138.27,191c-13.75,0-25.31-8-25.31-25,0-15.31,11.35-26.56,25.41-26.56a31,31,0,0,1,8,.84V118.26H154v69.23C151,189.26,145.25,191,138.27,191Zm8.12-43.63a19,19,0,0,0-7.6-1.25c-9.69,0-18.12,7.6-18.12,19.37,0,11.14,6.14,19,19,19a18,18,0,0,0,6.77-1.24Z"/><path d="M168.89,190V140.73h7.6V190Z"/><path d="M201.28,191a27,27,0,0,1-14.58-3.75l2.92-5.93a22.73,22.73,0,0,0,12,3.54c6,0,10.42-2.71,10.42-7.29,0-12.08-22.39-7.81-22.39-25.1,0-7.08,5.1-13,16.35-13a29.21,29.21,0,0,1,12.39,2.61v6.66c-3.44-1.46-7-2.92-12.08-2.92s-9.17,1.78-9.17,6.25c0,11,22.81,8.23,22.81,24.37C219.92,186.76,211.38,191,201.28,191Z"/><path d="M246.17,191a21,21,0,0,1-8.23-1.56v23.2h-7.6V142.81c3.33-1.14,9.06-3.33,16.14-3.33,14.89,0,24.37,9.58,24.37,25.31C270.85,182,258.45,191,246.17,191Zm.2-44.67a26.65,26.65,0,0,0-8.43,1.25v34.88a16.83,16.83,0,0,0,7.91,2c10.31,0,17.29-7.39,17.29-19.58C263.14,152,255.33,146.36,246.37,146.36Z"/><path d="M283.14,190V140.73h7.6V190Z"/><path d="M337.19,190v-30.3c0-6.15-1-13-8.54-13-6,0-11.45,4.27-15.31,7.7V190h-7.6V140.73H312l1,5.83c5.83-4.27,10.73-7.08,17.6-7.08,7.08,0,14.16,5.1,14.16,17.39V190Z"/><path d="M363.85,166.66c0,9.38,5.42,17.71,16.35,17.71a23.4,23.4,0,0,0,11.67-3.54l2.29,5.2c-3.54,2.92-9.79,5-15.52,5-15.41,0-22.91-12.6-22.91-26.66,0-14.27,8.12-24.89,20-24.89,12.7,0,19.68,10.1,19.68,25.41v1.77Zm12-20.72c-7.29,0-11.87,6.46-11.87,14.27h23.22C387.18,153.33,383.33,145.94,375.83,145.94Z"/><path d="M49.3,183a24.13,24.13,0,0,0,8.54-2.84,24.86,24.86,0,0,0,6.83-5.52,25.84,25.84,0,0,0,4.54-7.6,24.68,24.68,0,0,0,1.67-9V140.9h7.19V158a31.49,31.49,0,0,1-2.56,12.64,32.45,32.45,0,0,1-7,10.24,33.54,33.54,0,0,1-10.29,6.93,31.47,31.47,0,0,1-12.63,2.56H42.11V140.9H49.3Z"/><rect class="cls-3" x="189.74" y="42.11" width="18.58" height="18.58"/><rect class="cls-4" x="238.2" y="42.11" width="18.58" height="18.58"/><rect class="cls-1" x="189.74" y="66.34" width="18.58" height="18.58"/><path class="cls-5" d="M238.2,84.92a18.57,18.57,0,0,0,18.57-18.58H238.2V84.92"/><rect class="cls-1" x="189.74" y="90.57" width="18.58" height="18.58"/><path class="cls-5" d="M214,109.15a18.57,18.57,0,0,0,18.57-18.58H214v18.58"/></svg>